<svg width="500" height="120" viewBox="0 0 500 120" xmlns="http://www.w3.org/2000/svg" fill="none">
  <!-- Icon -->
  <g transform="translate(0,10)">
    <!-- Back paper -->
    <path d="M20 20 C20 14 24 10 30 10 H70 C76 10 80 14 80 20 V80 C80 86 76 90 70 90 H30 C24 90 20 86 20 80 Z"
          fill="#2C7A7B"/>
    <!-- Front paper -->
    <path d="M30 10 H75 L95 30 V90 C95 96 91 100 85 100 H45 C39 100 35 96 35 90 V15 C35 12 37 10 40 10 Z"
          fill="#1E293B"/>
    <!-- Fold -->
    <path d="M75 10 V30 H95 Z" fill="#38B2AC"/>
    <!-- Motion lines -->
    <rect x="0" y="35" width="16" height="4" rx="2" fill="#38B2AC"/>
    <rect x="4" y="48" width="20" height="4" rx="2" fill="#2C7A7B"/>
    <rect x="0" y="61" width="16" height="4" rx="2" fill="#38B2AC"/>
  </g>

  <!-- Wordmark -->
  <text x="120" y="82"
        font-family="Inter, Segoe UI, Roboto, Helvetica, Arial, sans-serif"
        font-size="64"
        font-weight="700"
        fill="#1E293B"
        letter-spacing="-2">
    PaperFlow
  </text>
</svg>
